<?xml version="1.0" standalone="no"?>
<!DOCTYPE svg PUBLIC "-//W3C//DTD SVG 20010904//EN"
 "http://www.w3.org/TR/2001/REC-SVG-20010904/DTD/svg10.dtd">
<svg version="1.0" xmlns="http://www.w3.org/2000/svg"
 width="217.000000pt" height="232.000000pt" viewBox="0 0 217.000000 232.000000"
 preserveAspectRatio="xMidYMid meet">
<g transform="translate(0.000000,232.000000) scale(0.050000,-0.050000)"
fill="#000000" stroke="none">
<path d="M1869 4111 c-676 -105 -1276 -632 -1507 -1324 -97 -290 -105 -715
-22 -1135 l43 -218 183 -257 184 -258 82 4 c70 4 103 -10 218 -92 75 -54 209
-128 298 -165 89 -37 176 -85 192 -106 27 -34 70 -40 402 -52 436 -16 527 -3
905 126 357 121 386 135 420 199 16 32 94 111 172 177 424 357 544 644 590
1409 16 252 37 475 49 496 42 79 -97 225 -214 225 -80 0 -145 56 -254 220
-341 513 -1117 848 -1741 751z m211 -260 c0 -65 -6 -71 -85 -91 -682 -176
-1028 -604 -989 -1226 35 -561 274 -866 804 -1025 99 -29 183 -56 186 -59 5
-5 -208 -356 -406 -670 l-50 -78 -145 61 c-1443 611 -1149 2844 412 3127 248
45 273 42 273 -39z m497 28 c320 -88 707 -371 904 -661 46 -67 118 -139 178
-178 159 -101 163 -123 165 -820 1 -450 -202 -922 -491 -1139 -128 -97 -148
-98 -284 -21 -154 88 -529 389 -507 407 4 4 67 36 139 71 231 112 450 325 548
532 108 231 139 727 54 887 -25 48 -40 101 -33 119 38 100 -535 545 -805 625
-85 25 -85 26 -85 122 0 115 3 116 217 56z m-473 -609 c15 -256 72 -1294 81
-1460 l5 -99 -96 -46 c-251 -119 -700 196 -834 585 -204 594 210 1292 750
1264 l80 -4 14 -240z m445 160 c171 -78 359 -239 405 -346 15 -37 54 -82 86
-100 70 -40 79 -71 80 -261 0 -390 -203 -759 -522 -948 -188 -111 -198 -107
-200 80 -1 85 -12 490 -25 900 -17 551 -17 745 0 745 12 0 91 -32 176 -70z
m-338 -2510 l-1 -270 -160 -6 c-306 -11 -304 -25 -55 377 228 366 219 370 216
-101z m499 169 c149 -116 270 -220 270 -230 0 -28 -92 -69 -281 -127 -230 -70
-234 -69 -247 33 -18 148 -35 535 -23 535 6 0 133 -95 281 -211z"/>
</g>
</svg>
